<?xml version="1.0" standalone="no"?>
<!DOCTYPE svg PUBLIC "-//W3C//DTD SVG 20010904//EN"
 "http://www.w3.org/TR/2001/REC-SVG-20010904/DTD/svg10.dtd">
<svg version="1.0" xmlns="http://www.w3.org/2000/svg"
 width="700.000000pt" height="700.000000pt" viewBox="0 0 700.000000 700.000000"
 preserveAspectRatio="xMidYMid meet">
<metadata>
Created by potrace 1.14, written by Peter Selinger 2001-2017
</metadata>
<g transform="translate(0.000000,700.000000) scale(0.100000,-0.100000)"
fill="#000000" stroke="none">
<path d="M270 6936 c36 -35 548 -536 1137 -1114 l1073 -1051 112 76 c184 124
374 206 595 255 84 19 129 22 318 22 193 1 233 -2 325 -22 226 -50 446 -145
615 -267 l90 -65 91 93 c50 50 468 477 929 947 461 470 913 930 1004 1023
l166 167 -3260 0 -3260 0 65 -64z"/>
<path d="M5945 5694 c-578 -588 -1074 -1094 -1103 -1125 l-53 -57 66 -96 c117
-173 200 -370 246 -586 20 -91 23 -135 23 -320 1 -187 -2 -228 -22 -320 -43
-195 -115 -377 -208 -527 l-45 -72 1073 -1159 1073 -1158 3 1617 c1 890 1
2350 0 3245 l-3 1627 -1050 -1069z"/>
<path d="M0 3473 l0 -3217 28 26 c15 14 531 494 1147 1068 616 574 1124 1046
1129 1051 4 4 -15 35 -43 69 -362 435 -471 1037 -284 1574 44 127 129 295 200
393 l55 76 -79 77 c-735 723 -2144 2100 -2148 2100 -3 0 -5 -1448 -5 -3217z"/>
<path d="M4545 2259 c-225 -188 -522 -319 -815 -359 -103 -14 -341 -14 -440 0
-225 31 -464 119 -649 237 -53 34 -54 34 -77 16 -13 -10 -536 -497 -1164
-1083 l-1141 -1065 3242 -3 c1783 -1 3244 0 3246 2 6 5 -2119 2299 -2132 2302
-5 2 -37 -20 -70 -47z"/>
</g>
</svg>
